# xmcd
#
# Track frame offsets:
#	150
#	20653
#	38098
#	54422
#	70830
#	91620
#	103608
#	119876
#	137686
#	156014
#	169807
#	188633
#	208905
#	225637
#	250711
#	277606
#	310150
#
# Disc length: 4503 seconds
#
# Revision: 0
# Processed by: cddbd v1.5.2PL0 Copyright (c) Steve Scherf et al.
# Submitted via: EasyCDDAExtractor 16.1.0.1
#
DISCID=e0119511
DTITLE=Huey Lewis and The News - Collected 3/3
DYEAR=1900
DGENRE=
TTITLE0=Clover - Streets Of London
TTITLE1=Clover - Ain't Nobody Own Nobody's Soul
TTITLE2=American Express - Exodisco
TTITLE3=American Express - Kick Back
TTITLE4=Huey Lewis and The News - Trouble In Paradise [Live]
TTITLE5=Huey Lewis and The News - Flip Flop and Fly
TTITLE6=Huey Lewis - Oh! Darling
TTITLE7=Huey Lewis - Once Upon A Time In New York City
TTITLE8=Huey Lewis - Feelin' Alright
TTITLE9=Huey Lewis - Lonely Teardrops
TTITLE10=Strokeland Superband ft. Huey Lewis - Work With Me
TTITLE11=Brenda Lee and Huey Lewis - Oh! Happy Day
TTITLE12=Frankie Miller and Huey Lewis - Way Past Midnight
TTITLE13=Huey Lewis and The News - I Want A New Drug [Extended Version/Dance Mix
TTITLE13=]
TTITLE14=Huey Lewis and The News - Heart And Soul [Jellybean Remix]
TTITLE15=Huey Lewis and The News - The Power Of Love [Jellybean Remix]
TTITLE16=Huey Lewis and The News - Hip To Be Square [Dance Remix]
EXTD=
EXTT0=
EXTT1=
EXTT2=
EXTT3=
EXTT4=
EXTT5=
EXTT6=
EXTT7=
EXTT8=
EXTT9=
EXTT10=
EXTT11=
EXTT12=
EXTT13=
EXTT14=
EXTT15=
EXTT16=
PLAYORDER=
